<mxfile host="app.diagrams.net" modified="2021-09-10T03:41:39.059Z" agent="5.0 (Windows NT 10.0; Win64; x64) AppleWebKit/537.36 (KHTML, like Gecko) Chrome/93.0.4577.63 Safari/537.36" etag="5H1wr9flulMs6gqTkavX" version="15.1.4" type="github">
  <diagram id="DN_CMzoDnnbBKzQPnteG" name="Page-1">
    <mxGraphModel dx="868" dy="1651" grid="1" gridSize="10" guides="1" tooltips="1" connect="1" arrows="1" fold="1" page="1" pageScale="1" pageWidth="827" pageHeight="1169" math="0" shadow="0">
      <root>
        <object label="" id="0">
          <mxCell />
        </object>
        <mxCell id="1" parent="0" />
        <mxCell id="Z851XeOXGae0CJjuf_Do-1" value="Actor" style="shape=umlActor;verticalLabelPosition=bottom;verticalAlign=top;html=1;outlineConnect=0;" vertex="1" parent="1">
          <mxGeometry x="30" y="100" width="30" height="60" as="geometry" />
        </mxCell>
        <mxCell id="Z851XeOXGae0CJjuf_Do-3" value="&lt;hr&gt;servidor" style="shape=umlActor;verticalLabelPosition=bottom;verticalAlign=top;html=1;outlineConnect=0;fillColor=#f8cecc;strokeColor=#b85450;shadow=0;labelBorderColor=none;" vertex="1" parent="1">
          <mxGeometry x="660" y="350" width="30" height="60" as="geometry" />
        </mxCell>
        <mxCell id="Z851XeOXGae0CJjuf_Do-16" style="edgeStyle=orthogonalEdgeStyle;rounded=0;orthogonalLoop=1;jettySize=auto;html=1;" edge="1" parent="1" source="Z851XeOXGae0CJjuf_Do-4">
          <mxGeometry relative="1" as="geometry">
            <mxPoint x="340" y="70" as="targetPoint" />
          </mxGeometry>
        </mxCell>
        <mxCell id="Z851XeOXGae0CJjuf_Do-20" style="edgeStyle=orthogonalEdgeStyle;rounded=0;orthogonalLoop=1;jettySize=auto;html=1;" edge="1" parent="1" source="Z851XeOXGae0CJjuf_Do-4" target="Z851XeOXGae0CJjuf_Do-21">
          <mxGeometry relative="1" as="geometry">
            <mxPoint x="220" y="300" as="targetPoint" />
          </mxGeometry>
        </mxCell>
        <mxCell id="Z851XeOXGae0CJjuf_Do-24" style="edgeStyle=orthogonalEdgeStyle;rounded=0;orthogonalLoop=1;jettySize=auto;html=1;" edge="1" parent="1" source="Z851XeOXGae0CJjuf_Do-4" target="Z851XeOXGae0CJjuf_Do-25">
          <mxGeometry relative="1" as="geometry">
            <mxPoint x="680" y="190" as="targetPoint" />
          </mxGeometry>
        </mxCell>
        <mxCell id="Z851XeOXGae0CJjuf_Do-4" value="pagina principal" style="rounded=0;whiteSpace=wrap;html=1;" vertex="1" parent="1">
          <mxGeometry x="160" y="100" width="120" height="60" as="geometry" />
        </mxCell>
        <mxCell id="Z851XeOXGae0CJjuf_Do-8" value="" style="endArrow=none;html=1;" edge="1" parent="1">
          <mxGeometry width="50" height="50" relative="1" as="geometry">
            <mxPoint x="70" y="129.5" as="sourcePoint" />
            <mxPoint x="160" y="129.5" as="targetPoint" />
          </mxGeometry>
        </mxCell>
        <mxCell id="Z851XeOXGae0CJjuf_Do-9" value="" style="endArrow=none;html=1;exitX=1;exitY=1;exitDx=0;exitDy=0;entryX=0.25;entryY=0;entryDx=0;entryDy=0;" edge="1" parent="1" source="Z851XeOXGae0CJjuf_Do-4" target="Z851XeOXGae0CJjuf_Do-11">
          <mxGeometry width="50" height="50" relative="1" as="geometry">
            <mxPoint x="280" y="190" as="sourcePoint" />
            <mxPoint x="330" y="220" as="targetPoint" />
          </mxGeometry>
        </mxCell>
        <mxCell id="Z851XeOXGae0CJjuf_Do-13" style="edgeStyle=orthogonalEdgeStyle;rounded=0;orthogonalLoop=1;jettySize=auto;html=1;" edge="1" parent="1" source="Z851XeOXGae0CJjuf_Do-11">
          <mxGeometry relative="1" as="geometry">
            <mxPoint x="500" y="290" as="targetPoint" />
          </mxGeometry>
        </mxCell>
        <mxCell id="Z851XeOXGae0CJjuf_Do-11" value="" style="rounded=0;whiteSpace=wrap;html=1;shadow=0;" vertex="1" parent="1">
          <mxGeometry x="309" y="220" width="121" height="60" as="geometry" />
        </mxCell>
        <mxCell id="Z851XeOXGae0CJjuf_Do-14" value="" style="rounded=0;whiteSpace=wrap;html=1;shadow=0;" vertex="1" parent="1">
          <mxGeometry x="440" y="290" width="120" height="60" as="geometry" />
        </mxCell>
        <mxCell id="Z851XeOXGae0CJjuf_Do-15" value="pedidos" style="text;html=1;strokeColor=none;fillColor=none;align=center;verticalAlign=middle;whiteSpace=wrap;rounded=0;shadow=0;" vertex="1" parent="1">
          <mxGeometry x="324" y="230" width="90" height="40" as="geometry" />
        </mxCell>
        <mxCell id="Z851XeOXGae0CJjuf_Do-18" value="" style="rounded=0;whiteSpace=wrap;html=1;shadow=0;" vertex="1" parent="1">
          <mxGeometry x="260" y="-10" width="140" height="70" as="geometry" />
        </mxCell>
        <mxCell id="Z851XeOXGae0CJjuf_Do-19" value="informacion sobre la app y la empresa" style="text;html=1;strokeColor=none;fillColor=none;align=center;verticalAlign=middle;whiteSpace=wrap;rounded=0;shadow=0;" vertex="1" parent="1">
          <mxGeometry x="309" y="15" width="40" height="20" as="geometry" />
        </mxCell>
        <mxCell id="Z851XeOXGae0CJjuf_Do-21" value="usuario" style="rounded=0;whiteSpace=wrap;html=1;shadow=0;" vertex="1" parent="1">
          <mxGeometry x="160" y="270" width="120" height="60" as="geometry" />
        </mxCell>
        <mxCell id="Z851XeOXGae0CJjuf_Do-25" value="" style="rounded=0;whiteSpace=wrap;html=1;shadow=0;" vertex="1" parent="1">
          <mxGeometry x="530" y="160" width="120" height="60" as="geometry" />
        </mxCell>
      </root>
    </mxGraphModel>
  </diagram>
</mxfile>
